<?xml version="1.0" encoding="utf-8"?>
<!-- Generator: Adobe Illustrator 25.2.0, SVG Export Plug-In . SVG Version: 6.00 Build 0)  -->
<svg version="1.1" id="katman_1" xmlns="http://www.w3.org/2000/svg" xmlns:xlink="http://www.w3.org/1999/xlink" x="0px" y="0px"
	 viewBox="0 0 560 400" style="enable-background:new 0 0 560 400;" xml:space="preserve">
<style type="text/css">
	.st0{fill:#5B77CC;}
	.st1{fill:#008ED6;}
	.st2{fill:#009966;}
</style>
<g transform="matrix(2.12504 0 0 2.12504 -196.025 -157.006)">
	<g>
		<path class="st0" d="M244.08,99.38c-2.28-0.72-4.55-1.24-6.93-1.66l-0.62-0.1l-8.8,64.27l9.11-5.49v-0.31l7.66-56.61L244.08,99.38
			z"/>
		<path class="st0" d="M250.91,101.76l-0.73-0.31l-6.93,51.03l9-5.38v-0.31l5.69-41.61l-0.41-0.21
			C255.46,103.83,253.19,102.69,250.91,101.76L250.91,101.76z"/>
		<path class="st0" d="M270.78,114.28c-2.07-1.86-4.24-3.62-6.52-5.18l-0.83-0.62l-4.76,34.78l9.21-5.49v-0.31l3.11-22.98
			L270.78,114.28z"/>
	</g>
	<path class="st1" d="M184.05,108.9l-0.41,0.31c-1.97,1.35-3.83,2.79-5.59,4.35l-0.52,0.41l44.4,46.99l1.45-10.56l-0.21-0.21
		L184.05,108.9z"/>
	<path class="st1" d="M196.78,101.86l-0.41,0.21c-2.28,0.93-4.45,2.07-6.62,3.31l-0.72,0.41l35.29,37.26l1.45-10.45l-0.21-0.21
		L196.78,101.86z"/>
	<path class="st1" d="M228.04,114.18L212.1,97.41l-0.31,0.1c-2.79,0.52-5.49,1.14-8.07,1.97l-0.93,0.31l24.01,25.36l1.45-10.66
		L228.04,114.18z"/>
	<g>
		<path class="st2" d="M293.45,154.96c-0.41-2.48-1.04-4.86-1.66-7.24l-0.21-0.83l-43.99,26.39l9.83,3.73l0.21-0.21l35.81-21.53
			V154.96z"/>
		<path class="st2" d="M289.41,140.78c-0.93-2.17-1.86-4.35-3-6.42l-0.31-0.62l-55.37,33.22l9.94,3.73l0.21-0.21l48.75-29.29
			L289.41,140.78z"/>
		<path class="st2" d="M294.38,162.82l-0.1-1.04l-29.91,17.91l9.94,3.83l0.21-0.1l19.77-11.9v-0.31c0.1-1.24,0.1-2.38,0.1-3.62
			C294.59,165.93,294.48,164.38,294.38,162.82z"/>
		<path class="st2" d="M197.3,213.44l0.1,0.31l7.04,22.04l0.31,0.1c2.69,0.73,5.38,1.35,8.07,1.76l1.04,0.21l-10.76-33.33
			L197.3,213.44z"/>
		<path class="st2" d="M223.07,174.21l-5.9,8.9l0.1,0.31l17.49,54.34l0.52-0.1c2.38-0.41,4.66-0.93,6.93-1.45l0.62-0.21
			L223.07,174.21z"/>
		<path class="st2" d="M207.34,198.22l0.1,0.31l12.83,39.95h0.41c1.14,0,2.17,0.1,3.31,0.1c1.35,0,2.69,0,4.04-0.1h0.83
			l-15.73-49.06L207.34,198.22z"/>
	</g>
	<g>
		<path class="st0" d="M171.73,175.04l-0.21,0.21l-12.73,19.46l0.1,0.31c1.04,2.59,2.28,5.07,3.62,7.45l0.52,0.93l19.25-29.19
			L171.73,175.04z"/>
		<path class="st0" d="M207.65,171.93l-0.21,0.21l-31.26,47.61l0.41,0.31c1.76,1.55,3.62,3.1,5.49,4.55l0.52,0.41l35.6-54.13
			L207.65,171.93z"/>
		<path class="st0" d="M189.74,173.49l-0.21,0.21l-22.98,34.98l0.21,0.31c1.45,1.97,3,3.93,4.66,5.8l0.52,0.62l28.26-42.95
			L189.74,173.49z"/>
	</g>
	<path class="st2" d="M210.44,157.34h-0.31l-56.51,5.07v0.52c-0.1,1.45-0.1,3-0.1,4.45c0,0.93,0,1.76,0.1,2.69v0.62l64.17-5.69
		L210.44,157.34z"/>
	<path class="st2" d="M185.5,131.05h-0.31l-22.98,2.07l-0.1,0.31c-1.35,2.48-2.48,4.97-3.52,7.55l-0.41,0.93l34.67-3.1L185.5,131.05
		z"/>
	<path class="st2" d="M198.02,144.3h-0.31l-41.61,3.73l-0.1,0.41c-0.62,2.38-1.14,4.76-1.55,7.24l-0.1,0.83l50.92-4.55L198.02,144.3
		z"/>
	<path class="st1" d="M228.66,172.45l3.21,10.14l0.31,0.1l53.1,20.18l0.21-0.52c1.14-2.07,2.17-4.14,3.21-6.42l0.31-0.62
		L228.66,172.45z"/>
	<path class="st1" d="M237.46,199.77l0.31,0.1l39.02,14.8l0.31-0.31c1.66-1.86,3.11-3.83,4.55-5.8l0.41-0.62l-47.92-18.22
		L237.46,199.77z"/>
	<path class="st1" d="M242.94,217.16l0.31,0.1l21.53,8.18l0.31-0.21c2.28-1.66,4.45-3.42,6.52-5.28l0.72-0.72l-32.6-12.32
		L242.94,217.16z"/>
</g>
</svg>
